/* XPM */
static char *rapture32[] = {
/* columns rows colors chars-per-pixel */
"32 32 229 2 ",
"   c #E90000",
".  c #EA0000",
"X  c #EB0000",
"o  c #EA0102",
"O  c #EB090C",
"+  c #EB0A0D",
"@  c #EC0C0E",
"#  c #EC0D0F",
"$  c #ED1E21",
"%  c #ED1F21",
"&  c #ED2123",
"*  c #EE2226",
"=  c #EF3436",
"-  c #EF3A3C",
";  c #F03A3E",
":  c #FF6A0A",
">  c #FE690C",
",  c #FF7417",
"<  c #FE7928",
"1  c #FF7D28",
"2  c #F14E51",
"3  c #F14F53",
"4  c #F15355",
"5  c #F36468",
"6  c #F46F72",
"7  c #F47377",
"8  c #F5797D",
"9  c #FF8131",
"0  c #FF893C",
"q  c #FF8D42",
"w  c #FF9855",
"e  c #FF9955",
"r  c #FFA66A",
"t  c #FFA970",
"y  c #0000C9",
"u  c #0001C9",
"i  c #0007CB",
"p  c #0008CB",
"a  c #0115CD",
"s  c #081DCF",
"d  c #0B1ECF",
"f  c #0520D0",
"g  c #152ED3",
"h  c #2335D4",
"j  c #2539D5",
"k  c #2F48D8",
"l  c #3D4CD9",
"z  c #3D55DB",
"x  c #3E55DB",
"c  c #4556DB",
"v  c #5866DF",
"b  c #5A6FE0",
"n  c #6674E1",
"m  c #6A7DE3",
"M  c #6E7FE4",
"N  c #9200C3",
"B  c #9B03C8",
"V  c #9E00C9",
"C  c #9C03C8",
"Z  c #9E00CA",
"A  c #A301CC",
"S  c #A403CD",
"D  c #AB16D1",
"F  c #AD19D1",
"G  c #B632D6",
"H  c #B736D7",
"J  c #C254DD",
"K  c #C359DE",
"L  c #C463DE",
"P  c #CA6DE2",
"I  c #CB6EE2",
"U  c #CC77E3",
"Y  c #D27FE3",
"T  c #D07BE5",
"R  c #7483E5",
"E  c #7788E6",
"W  c #F38388",
"Q  c #F38488",
"!  c #F6888B",
"~  c #F68D91",
"^  c #F79699",
"/  c #F59B9F",
"(  c #F59C9F",
")  c #FFB381",
"_  c #FFBB8E",
"`  c #F8A1A6",
"'  c #F8ADB0",
"]  c #F9AFB1",
"[  c #F9B8B9",
"{  c #FFC098",
"}  c #FFCEAF",
"|  c #FFCFB0",
" . c #FED5B9",
".. c #8691E8",
"X. c #8D9DEA",
"o. c #94A2EB",
"O. c #97A4EB",
"+. c #A2ADED",
"@. c #AEB5ED",
"#. c #ADB7EE",
"$. c #F9BCC2",
"%. c #D180E6",
"&. c #D485E4",
"*. c #D58AE8",
"=. c #D68DE8",
"-. c #D897EA",
";. c #D99BEB",
":. c #DC9FEC",
">. c #DDA1EC",
",. c #DEA4ED",
"<. c #E0AAEE",
"1. c #E2AEEF",
"2. c #E3B2F0",
"3. c #E4B3F0",
"4. c #E4B5F0",
"5. c #B7C2F2",
"6. c #B9C1F2",
"7. c #BAC2F2",
"8. c #BBC3F2",
"9. c #BFC6F3",
"0. c #BFC7F3",
"q. c #FAC3C4",
"w. c #FAC6C8",
"e. c #FBC9CA",
"r. c #FBC9CB",
"t. c #FBCDCE",
"y. c #FEDAC1",
"u. c #FFDDC7",
"i. c #FBCFD1",
"p. c #FCD8D9",
"a. c #FCDADB",
"s. c #FFE3D1",
"d. c #FEE4D9",
"f. c #FFEBDF",
"g. c #FFEFDE",
"h. c #C0C8F3",
"j. c #C6CAF2",
"k. c #C4CDF3",
"l. c #CBD3F5",
"z. c #D7DCF7",
"x. c #DADFF8",
"c. c #EAC5F3",
"v. c #EAC6F4",
"b. c #EBC7F4",
"n. c #EBC9F4",
"m. c #EFD4F6",
"M. c #F0D6F6",
"N. c #F0D7F7",
"B. c #F1D9F7",
"V. c #F2DCF8",
"C. c #F2DDF8",
"Z. c #DBE0F8",
"A. c #FDE5E6",
"S. c #FDE7E7",
"D. c #FDEAEA",
"F. c #FDEAEB",
"G. c #FFF8EE",
"H. c #E1E5F9",
"J. c #E6E9FA",
"K. c #E6EAFA",
"L. c #E7EAFA",
"P. c #E8ECFB",
"I. c #ECEEFB",
"U. c #F4E1F9",
"Y. c #F4E2F9",
"T. c #F7EAFA",
"R. c #F7EBFB",
"E. c #F8EBFB",
"W. c #F8ECFB",
"Q. c #FEF2F2",
"!. c #FEF5F3",
"~. c #FEF6F6",
"^. c #FFF8F3",
"/. c #FFF8F4",
"(. c #FFFAF7",
"). c #F1F2FC",
"_. c #F1F3FC",
"`. c #F6F7FD",
"'. c #FDF7FB",
"]. c #FAF2FC",
"[. c #FBF3FC",
"{. c #FFF3FD",
"}. c #FCF6FD",
"|. c #F7F8FD",
" X c #FEF8F8",
".X c #FEFAFA",
"XX c #FEFBFB",
"oX c #FFFCFA",
"OX c #FEFCFB",
"+X c #FFFCFB",
"@X c #F8F9FD",
"#X c #F9F9FD",
"$X c #FAFAFE",
"%X c #FBFAFE",
"&X c #FAFBFE",
"*X c #FBFBFE",
"=X c #FDF8FC",
"-X c #FCF8FD",
";X c #FDFBFD",
":X c #FEFBFC",
">X c #FDFAFE",
",X c #FCFBFE",
"<X c #FDFBFE",
"1X c #FBFCFE",
"2X c #FBFDFE",
"3X c #FEFCFC",
"4X c #FFFDFC",
"5X c #FEFCFD",
"6X c #FEFDFD",
"7X c #FFFDFD",
"8X c #FEFEFD",
"9X c #FFFEFD",
"0X c #FCFCFE",
"qX c #FCFDFE",
"wX c #FDFDFE",
"eX c #FEFCFE",
"rX c #FFFCFE",
"tX c #FEFDFE",
"yX c #FEFDFF",
"uX c #FDFEFE",
"iX c #FDFFFF",
"pX c #FEFEFE",
"aX c #FFFEFE",
"sX c #FFFFFE",
"dX c #FEFEFF",
"fX c #FFFEFF",
"gX c #FEFFFF",
"hX c white",
"jX c None",
/* pixels */
"jXjXjXhXhXhXhXhXhXhXhXhXhXhXhXhXOXhXhXhXhXhXhXhXhXhXhXhXhXjXjXjX",
"jXhXhXhXhXhXhXhXhXhXhXhXhXhXhXhXhXhXhXhXhXhXhXhXhXhXhXhXhXhXhXjX",
"jXhXhXhXhXhXhXhXhXhXhXhXhXhXhX!./.hXOXhXhXhXhXhXhXhXhXhXhXhXhXjX",
"hXhXhXhXhXhXhXhXhXhXhXhXhXXXhXs.g.hXhXhXhXhXhXhXhXhXhXhXhXhXhXhX",
"hXhXhXhXhXhXhXhXhXhXhXhXhXOXhX} u.hXOXhXhXhXhXhXhXhXhXhXhXhXhXhX",
"hXhXhXhXhXhXhXhXhXhXhXhXhXXXhX_ | hXOXhXhXhXhXhXhXhXhXhXhXhXhXhX",
"hXhXhXhXhXhXhXXXhXhXOXhXhXOXhXt _ hXhXhXhXhXhXhXXXhXhXhXhXhXhXhX",
"hXhXhXhXhXhXXXhXXXhXhXhXhXOXhXw ) hXXXhXhXhXhXXXXXXXhXhXhXhXhXhX",
"hXhXhXhX1XhXD.t.hXOXhXhXhXOXhX0 r hXOXhXhXhXhXhXe.Q.hXhXhXhXhXhX",
"hXhXhXhXhXXXhX' ^ hXOXOXhXhXhX1 e hXOXhXXXOX1X! q.hXXXhXhXhXhXhX",
"hXhXhXhXhXhX;XhX8 5 hXhXXXhXhX, q hXOXXXhX~.2 ^ hXXXhXhXhXhXhXhX",
"hXhXhXhXhXhXhXXXhX2 - ~.hXhX^.: 9 hXXXhXA.* 6 hXXXhXhXhXhXhXhXhX",
"hXhXhXhXhXOXhXhXhXXX= $ a.hXd.> < !.hXw.+ 4 hXXXhXhXhXhXhXhXhXhX",
"hXhXhXhXhXhXhXhXhXhXD.& O $.g.y. .G.`   - OXhXhXhXhXhXhXhXhXhXhX",
"hX*XhXhXhX;X;X;X*X[.hXt.#   ~ hX;X7   & A.1X'.;X-X;XXX;XhXhX1XhX",
"hXhXhXhXhXhXhXhXhXhXXXhX'     p.[   # e.hXOXhXhXhXhXhXhXhXhXhXhX",
"hX*X].T.Y.m.n.1.:.*.P Y 1XQ / hXhXW / hX&.P =.>.4.n.m.Y.W.-XhXhX",
";XN.>.T J G D A V B N U hX-XhXhXhXhX-XhXL N B V S F H J %.,.B.hX",
"hXhXhXhXhXhX[.T.B.c.1.;.hX#.j.hXhX@.k.{.-.1.n.B.T.;XhXhX1XhXhXhX",
"hXhXXXhXhXhXhXhXhXhX1XhXl.s d K.0.p j P.hXhXhXhXhXhXhX;XhXhXOXhX",
"hXhXhXhXhXOXhX*XhX*XhXK.h p v `.H.z y c 1X;X;XhXhXhX1XhXhXhXhXhX",
"hXhXhXhXhXhXhXhXhXOX*Xl i X.hXhXhX*Xm y n hX*XhXOXhXhXhXhXhXhXhX",
"hXhXhXhXhX1XhXhX*XhXv a 5.hX*XhXhX1XhXo.i ..hX*XhXhXhXhXhXhXhXhX",
"hXhXhXhXhXhXhX*XhXR g x.hX*X1XhXhX1X*XhX8.f +.hX|.hXOXhXhXhXhXhX",
"hXhXhXhX*XhX1XhXo.z _.hX*XhXhXhXhXhX1X*XhXz.k 0.hX1XhXhXhXhXhXhX",
"hXhXhXhXhX;XhX0.E -XhX1XhXhXhXhXhXhXhXhX*XhXK.M Z.hX1XhXhXhXhXhX",
"hXhXhXhXhXhXI.8.1XhX1XhXOXhXhXhXhXhXhXhXhXhXhX).8.|.hXhXhXhXhXhX",
"hXhXhXhXOXhX`.1X1XhXhXhXhXhXhXhXhXhXhXhXOXhX1X-X*X|.hXhXhXhXhXhX",
"hXhXhXhXhXhXhX1XhXhXOXhXhXhXhXhXhXhXhXhXhXhXhXhX*XhXhXhXhXhXhXhX",
"jXhXhXhXhXhXhXhXhX1XhXhXhXhXhXhXhXhXhXhXhXhXhXhXhXhXhXhXhXhXhXjX",
"jXhXhXhXhXhXhXhXhXhXhXhXhXhXhXhXhXhXhXhXhXhXhXhXhXhXhXhXhXhXhXjX",
"jXjXjXhXhXhXhXhXhXhXhXhXhXhXhXhXhXhXhXhXhXhXhXhXhXhXhXhXhXjXjXjX"
};
