/* XPM */
static char *rapture16[] = {
/* columns rows colors chars-per-pixel */
"16 16 93 2 ",
"   c #F00505",
".  c #F00606",
"X  c #F70011",
"o  c #EF1818",
"O  c #EF1919",
"+  c #F21010",
"@  c #F30025",
"#  c #FA2828",
"$  c #FB2929",
"%  c #FF4643",
"&  c #FF4946",
"*  c #F04449",
"=  c #F57879",
"-  c #F67C7C",
";  c #FF840F",
":  c #FF8512",
">  c #FF811B",
",  c #FF831E",
"<  c #FF8633",
"1  c #FB8F52",
"2  c #FB9055",
"3  c #FF9B59",
"4  c #FF9D5C",
"5  c #0021CF",
"6  c #0021D0",
"7  c #0826D2",
"8  c #0F26E8",
"9  c #1E26E8",
"0  c #2A43D8",
"q  c #2944D8",
"w  c #2846D8",
"e  c #2F4BDA",
"r  c #3E58DB",
"t  c #3555F9",
"y  c #3B5BFB",
"u  c #455FDC",
"i  c #AC05CC",
"p  c #AD05CC",
"a  c #AA15D0",
"s  c #B023D4",
"d  c #CE0DEF",
"f  c #CA0AF0",
"g  c #C761E0",
"h  c #7E8EE7",
"j  c #FFCDAC",
"k  c #FFCEAD",
"l  c #8392E7",
"z  c #8694E9",
"x  c #8E9CE9",
"c  c #95A1EC",
"v  c #97A4EC",
"b  c #DCA8F8",
"n  c #DDA8F8",
"m  c #DDABF9",
"M  c #DCAAFA",
"N  c #E5A5ED",
"B  c #E5A5EE",
"V  c #E6BAEF",
"C  c #E5B7F0",
"Z  c #E5B7F2",
"A  c #FDD9D9",
"S  c #FDDADB",
"D  c #C7CEF5",
"F  c #CFD5F6",
"G  c #D5DAF7",
"H  c #EBC4EF",
"J  c #E8D1E5",
"K  c #E9D1E5",
"L  c #EFC3F1",
"P  c #EFC5F4",
"I  c #EDCCF5",
"U  c #F1D7F7",
"Y  c #DDE0F9",
"T  c #FFE7E7",
"R  c #FFE8E8",
"E  c #E1E5F9",
"W  c #E6E9FA",
"Q  c #F7E7F4",
"!  c #FBEBF5",
"~  c #F4E0F9",
"^  c #F4E1F9",
"/  c #F5E2F9",
"(  c #FEF2F3",
")  c #FFF7F3",
"_  c #FEF3F4",
"`  c #FDF9FD",
"'  c #FDFAFE",
"]  c #FFFDFD",
"[  c #FCFCFF",
"{  c #FDFDFF",
"}  c #FEFCFE",
"|  c white",
" . c None",
/* pixels */
" .| | | | | | ) ) | | | | | |  .",
"| | | | | | | j j | | | | | | | ",
"| | | | | | | 3 4 | | | | | | | ",
"| | | A | | | < < | | | A | | | ",
"| | | = * | | > , | | * - | | | ",
"| | | T # O | ; : | o # R | | | ",
"| | | | ( + . 2 1 . + ( | | | | ",
"` U C b m V @ & % X H m m C U ` ",
"/ g s a i f Q J J ! d i a s g / ",
"` ^ I P N L 8 y t 9 L N P I / ` ",
"| | | | | q 5 x l 6 e | | | | | ",
"| | | | r 7 F | | D 7 u | | | | ",
"| | | h q W | | | | E 0 z | | | ",
"| | [ c Y | | | | | | G v | | | ",
"| | | | | | | | | | | | | | | | ",
" .| | | | | | | | | | | | | |  ."
};
