/* XPM */
static char *rapture64[] = {
/* columns rows colors chars-per-pixel */
"64 64 165 2 ",
"   c #EA0001",
".  c #EC050A",
"X  c #EC090D",
"o  c #ED1416",
"O  c #ED1A1E",
"+  c #EE1F22",
"@  c #EE2C2F",
"#  c #EE2427",
"$  c #EF2E32",
"%  c #EF373A",
"&  c #F0373B",
"*  c #F03C3F",
"=  c #FF5C00",
"-  c #FF6300",
";  c #FF6C0C",
":  c #FF6A06",
">  c #FF761C",
",  c #FF761A",
"<  c #FF7C29",
"1  c #FF7D26",
"2  c #F1494C",
"3  c #F14E52",
"4  c #F2585B",
"5  c #F25E61",
"6  c #F3676B",
"7  c #F46D71",
"8  c #F5797C",
"9  c #F47477",
"0  c #FF822F",
"q  c #FF8433",
"w  c #FF8738",
"e  c #FF8D40",
"r  c #FF9249",
"t  c #FF9047",
"y  c #FF9F5F",
"u  c #FF9854",
"i  c #FFA56B",
"p  c #FFAC76",
"a  c #0004CA",
"s  c #000ECC",
"d  c #0013CD",
"f  c #021BCF",
"g  c #0C1FD0",
"h  c #021FD0",
"j  c #0523D1",
"k  c #0B23D0",
"l  c #122AD2",
"z  c #182ED3",
"x  c #1D34D4",
"c  c #2238D5",
"v  c #2234D4",
"b  c #2C42D7",
"n  c #2D46D8",
"m  c #3246D8",
"M  c #384CD9",
"N  c #3B51DA",
"B  c #455BDC",
"V  c #4F65DE",
"C  c #5265DF",
"Z  c #5869DF",
"A  c #5B6DE0",
"S  c #6375E2",
"D  c #6C7DE3",
"F  c #F57E80",
"G  c #9D00C9",
"H  c #9A00C7",
"J  c #A201CC",
"K  c #A70ACF",
"L  c #A90FD0",
"P  c #AB14D0",
"I  c #AC19D1",
"U  c #AF21D3",
"Y  c #B126D4",
"T  c #B42CD5",
"R  c #B735D7",
"E  c #B93BD8",
"W  c #B838D7",
"Q  c #BC46DA",
"!  c #C04EDC",
"~  c #C255DE",
"^  c #C55DDF",
"/  c #C662DF",
"(  c #C867E1",
")  c #CA6CE2",
"_  c #CE77E4",
"`  c #D17FE5",
"'  c #7C8CE6",
"]  c #7684E5",
"[  c #F68689",
"{  c #F68C8F",
"}  c #F58386",
"|  c #F69194",
" . c #F79699",
".. c #F79A9D",
"X. c #FFB786",
"o. c #FFBA8C",
"O. c #F7A2A4",
"+. c #F8A2A5",
"@. c #F8ACAE",
"#. c #F9AFB0",
"$. c #FABCBE",
"%. c #F9B5B7",
"&. c #FFC49E",
"*. c #FFCCAB",
"=. c #FEC6A5",
"-. c #FFD2B3",
";. c #FFD6BA",
":. c #808EE7",
">. c #8C9BEA",
",. c #95A2EB",
"<. c #9CA8ED",
"1. c #A2AEEE",
"2. c #A6B1EE",
"3. c #A9B4EF",
"4. c #B5BFF1",
"5. c #FABFC1",
"6. c #D383E7",
"7. c #D488E7",
"8. c #D996EA",
"9. c #DC9DEB",
"0. c #DFA5ED",
"q. c #E2ADEF",
"w. c #E3B0EF",
"e. c #E7BCF2",
"r. c #E4B5F0",
"t. c #BDC5F3",
"y. c #FBC9CA",
"u. c #FAC5C6",
"i. c #FFDBC4",
"p. c #FFDDC9",
"a. c #FBD3D4",
"s. c #FCD7D9",
"d. c #FCDADB",
"f. c #FFE5D4",
"g. c #FFE9DB",
"h. c #FFE7D8",
"j. c #C5CDF4",
"k. c #C4CBF4",
"l. c #CDD4F6",
"z. c #D6DBF7",
"x. c #FCDFE0",
"c. c #EAC4F3",
"v. c #ECCBF4",
"b. c #EED1F6",
"n. c #F3DEF8",
"m. c #F1D9F6",
"M. c #DDE2F8",
"N. c #FCE2E3",
"B. c #FEEDE3",
"V. c #FDECED",
"C. c #FFF3EB",
"Z. c #E2E6F9",
"A. c #E6E9FA",
"S. c #EBEDFB",
"D. c #F4E3F9",
"F. c #F9EDFB",
"G. c #F7E9FA",
"H. c #ECF0FB",
"J. c #FEF3F4",
"K. c #FFFAF7",
"L. c #F2F4FC",
"P. c #FAF2FC",
"I. c #F7F9FD",
"U. c #FFFFFF",
"Y. c None",
/* pixels */
"Y.Y.Y.Y.Y.Y.U.U.U.U.U.U.U.U.U.U.U.U.U.U.U.U.U.U.U.U.U.U.U.U.U.U.U.U.U.U.U.U.U.U.U.U.U.U.U.U.U.U.U.U.U.U.U.U.U.U.U.U.Y.Y.Y.Y.Y.Y.",
"Y.Y.Y.Y.U.U.U.U.U.U.U.U.U.U.U.U.U.U.U.U.U.U.U.U.U.U.U.U.U.U.U.U.U.U.U.U.U.U.U.U.U.U.U.U.U.U.U.U.U.U.U.U.U.U.U.U.U.U.U.U.Y.Y.Y.Y.",
"Y.Y.Y.U.U.U.U.U.U.U.U.U.U.U.U.U.U.U.U.U.U.U.U.U.U.U.U.U.U.U.U.U.U.U.U.U.U.U.U.U.U.U.U.U.U.U.U.U.U.U.U.U.U.U.U.U.U.U.U.U.U.Y.Y.Y.",
"Y.Y.U.U.U.U.U.U.U.U.U.U.U.U.U.U.U.U.U.U.U.U.U.U.U.U.U.U.U.U.U.U.U.U.U.U.U.U.U.U.U.U.U.U.U.U.U.U.U.U.U.U.U.U.U.U.U.U.U.U.U.U.Y.Y.",
"Y.Y.U.U.U.U.U.U.U.U.U.U.U.U.U.U.U.U.U.U.U.U.U.U.U.U.U.U.U.U.U.K.K.U.U.U.U.U.U.U.U.U.U.U.U.U.U.U.U.U.U.U.U.U.U.U.U.U.U.U.U.U.Y.Y.",
"Y.U.U.U.U.U.U.U.U.U.U.U.U.U.U.U.U.U.U.U.U.U.U.U.U.U.U.U.U.U.U.f.C.U.U.U.U.U.U.U.U.U.U.U.U.U.U.U.U.U.U.U.U.U.U.U.U.U.U.U.U.U.U.Y.",
"Y.U.U.U.U.U.U.U.U.U.U.U.U.U.U.U.U.U.U.U.U.U.U.U.U.U.U.U.U.U.U.*.h.U.U.U.U.U.U.U.U.U.U.U.U.U.U.U.U.U.U.U.U.U.U.U.U.U.U.U.U.U.U.Y.",
"Y.U.U.U.U.U.U.U.U.U.U.U.U.U.U.U.U.U.U.U.U.U.U.U.U.U.U.U.U.U.U.X.i.U.U.U.U.U.U.U.U.U.U.U.U.U.U.U.U.U.U.U.U.U.U.U.U.U.U.U.U.U.U.Y.",
"U.U.U.U.U.U.U.U.U.U.U.U.U.U.U.U.U.U.U.U.U.U.U.U.U.U.U.U.U.K.U.i -.U.U.U.U.U.U.U.U.U.U.U.U.U.U.U.U.U.U.U.U.U.U.U.U.U.U.U.U.U.U.U.",
"U.U.U.U.U.U.U.U.U.U.U.U.U.U.U.U.U.U.U.U.U.U.U.U.U.U.U.U.U.U.U.r &.U.K.U.U.U.U.U.U.U.U.U.U.U.U.U.U.U.U.U.U.U.U.U.U.U.U.U.U.U.U.U.",
"U.U.U.U.U.U.U.U.U.U.U.U.U.U.U.U.U.U.U.U.U.U.U.U.U.U.U.U.U.U.U.< X.U.U.U.U.U.U.U.U.U.U.U.U.U.U.U.U.U.U.U.U.U.U.U.U.U.U.U.U.U.U.U.",
"U.U.U.U.U.U.U.U.U.U.U.U.U.U.U.U.U.U.U.U.U.U.U.U.U.U.U.U.U.U.U., p U.K.U.U.U.U.U.U.U.U.U.U.U.U.U.U.U.U.U.U.U.U.U.U.U.U.U.U.U.U.U.",
"U.U.U.U.U.U.U.U.U.U.U.U.U.U.U.U.U.U.U.U.U.U.U.U.U.U.U.U.U.U.K.: y U.U.U.U.U.U.U.U.U.U.U.U.U.U.U.U.U.U.U.U.U.U.U.U.U.U.U.U.U.U.U.",
"U.U.U.U.U.U.U.U.U.U.U.U.U.U.U.U.U.U.U.U.U.U.U.U.U.U.U.U.U.U.C.- r U.K.U.U.U.U.U.U.U.U.U.U.U.U.U.U.U.U.U.U.U.U.U.U.U.U.U.U.U.U.U.",
"U.U.U.U.U.U.U.U.U.U.U.U.U.U.U.U.U.U.U.U.U.U.U.U.U.U.U.U.U.U.f.= w U.U.U.U.U.U.U.U.U.U.U.U.U.U.U.U.U.U.U.U.U.U.U.U.U.U.U.U.U.U.U.",
"U.U.U.U.U.U.U.U.U.U.U.U.K.K.U.U.U.U.U.U.U.U.U.U.U.U.U.U.K.U.i.= 1 U.U.U.U.U.U.U.U.U.U.U.U.U.U.U.K.U.K.U.U.U.U.U.U.U.U.U.U.U.U.U.",
"U.U.U.U.U.U.U.U.U.U.U.U.U.u.V.U.U.U.U.U.U.U.U.U.U.U.U.U.U.U.*.= , C.U.U.U.U.U.U.U.U.U.U.U.U.U.K.U.s.s.U.U.U.U.U.U.U.U.U.U.U.U.U.",
"U.U.U.U.U.U.U.U.U.U.U.U.U.V.8 d.U.K.U.U.U.U.U.U.U.U.U.U.K.U.o.= : h.U.U.U.U.U.U.U.U.U.U.U.U.I.U.%.{ U.U.U.U.U.U.U.U.U.U.U.U.U.U.",
"U.U.U.U.U.U.U.U.U.U.U.U.U.U.s.& y.U.K.U.U.U.U.U.U.U.U.U.U.U.p = - p.U.U.U.U.U.U.U.U.U.U.U.K.U.| 2 I.U.U.U.U.U.U.U.U.U.U.U.U.U.U.",
"U.U.U.U.U.U.U.U.U.U.U.U.U.K.U.$.X @.U.K.U.U.U.U.U.U.U.U.K.U.y = - -.U.U.U.U.U.U.U.U.U.K.U.U.7 + V.U.U.U.U.U.U.U.U.U.U.U.U.U.U.U.",
"U.U.U.U.U.U.U.U.U.U.U.U.U.U.K.U.O.  [ U.I.U.U.U.U.U.U.U.U.U.t = = &.U.U.U.U.U.U.U.U.U.U.J.2 X d.U.U.U.U.U.U.U.U.U.U.U.U.U.U.U.U.",
"U.U.U.U.U.U.U.U.U.U.U.U.U.U.U.K.U.}   4 J.U.K.U.U.U.U.U.U.U.q - = X.U.U.U.U.U.U.U.K.U.s.@   5.U.K.U.U.U.U.U.U.U.U.U.U.U.U.U.U.U.",
"U.U.U.U.U.U.U.U.U.U.U.U.U.U.U.U.I.U.6   % x.U.K.U.U.U.U.U.K.1 - = i U.K.U.U.U.U.K.U.%.o   ..U.K.U.U.U.U.U.U.U.U.U.U.U.U.U.U.U.U.",
"U.U.U.U.U.U.U.U.U.U.U.U.U.U.U.U.U.U.J.*   O 5.U.K.U.U.I.U.C.; - = u U.U.U.U.I.U.U.{     9 U.U.U.U.U.U.U.U.U.U.U.U.U.U.U.U.U.U.U.",
"U.U.U.U.U.U.U.U.U.U.U.U.U.U.U.U.U.U.U.h.+   .  .U.K.U.U.U.h.: - = e U.U.U.K.U.I.6     3 U.U.U.U.U.U.U.U.U.U.U.U.U.U.U.U.U.U.U.U.",
"U.U.U.U.U.U.U.U.U.U.U.U.U.U.U.U.U.U.P.U.u.X     7 U.U.K.U.p.= q ; < U.U.K.U.N.*     $ V.U.U.U.U.U.U.U.U.U.U.U.U.U.U.U.U.U.U.U.U.",
"U.U.U.U.U.U.U.U.U.U.U.U.U.U.U.U.U.U.U.K.U.+.  .   2 V.U.U.=.< U.;.> C.U.U.y.+     o d.U.K.U.U.U.U.U.U.U.U.U.U.U.U.U.U.U.U.U.U.U.",
"U.U.U.U.U.U.U.U.U.U.U.U.U.U.U.U.U.U.U.U.U.U.8   X   # a.U.p.g.U.U.i.B.U.+..   .   $.U.I.U.U.U.U.U.U.U.U.U.U.U.U.U.U.U.U.U.U.U.U.",
"U.U.U.U.U.U.U.U.U.U.U.U.U.U.U.U.U.U.U.U.U.K.U.4   X   X #.U.K.U.K.U.U.8   . .    .U.K.U.U.U.U.U.U.U.U.U.U.U.U.U.U.U.U.U.U.U.U.U.",
"U.U.U.U.U.U.U.U.U.U.U.U.U.U.U.U.U.U.U.U.U.U.U.J.%   X     } U.U.U.J.3   . .   7 U.K.U.U.U.U.U.U.U.U.U.U.U.U.U.U.U.U.U.U.U.U.U.U.",
"U.U.U.U.U.U.U.U.U.U.U.U.U.U.U.U.U.U.I.U.U.U.P.U.x.O   X .   6 U.J.$   . .   2 U.P.U.U.U.U.U.I.U.U.U.U.U.U.U.U.U.U.U.U.U.U.U.U.U.",
"U.U.U.U.U.U.U.U.U.U.U.U.U.I.U.P.U.U.U.U.U.U.U.U.U.u..     o 5.U.U.{   .   $ C.U.K.U.U.U.U.U.U.U.U.P.U.U.U.U.U.U.U.U.U.U.U.U.U.U.",
"U.U.U.U.U.U.U.U.U.U.U.U.U.U.U.U.U.U.U.F.m.v.e.8.m.U.+.  o y.U.K.K.U. .  o s.U.F.0.e.b.D.P.U.U.U.U.U.U.U.U.U.U.U.U.U.U.U.K.U.U.U.",
"U.U.U.U.U.U.U.U.U.F.m.c.q.8.` ( ! W Y I K J H / U.I.U.[ $.U.U.U.U.U.U.| #.U.K.U.( H J K I T E ~ ) 6.9.r.v.n.P.U.U.U.U.U.U.U.U.U.",
"U.P.c.9._ ~ W I J J G G H G H G G J J J J J ( U.U.U.K.U.U.U.U.U.U.I.U.U.U.U.U.U.U.Q J J J J G G G G H H G G J L U E ^ 6.0.b.P.U.",
"U.U.G.n.v.e.q.8.7.) ^ Q R U P K J J G G G G I v.U.U.U.U.I.U.U.U.U.U.U.K.I.U.U.U.q.J G G G J J J K I Y W Q ^ _ 6.9.q.c.b.D.F.U.U.",
"U.U.U.U.U.U.U.U.U.U.U.U.U.P.G.b.c.q.8.` ( ~ T E D.U.U.z.L.U.U.U.U.U.U.M.S.U.U.c.Y W ~ ) 6.9.r.c.m.F.P.U.U.U.U.U.U.U.U.U.U.U.U.U.",
"U.U.U.U.U.U.U.I.U.U.P.U.U.U.U.U.U.U.U.U.U.U.U.P.F.U.M.k Z U.U.U.U.U.M.l C U.U.F.I.U.U.U.U.U.U.U.U.U.U.U.U.U.U.U.I.U.U.U.U.U.U.U.",
"U.U.U.U.U.U.U.U.U.U.U.U.U.U.U.U.U.U.U.I.K.I.U.U.U.L.m d s S U.U.U.z.v d d ' U.I.U.U.U.U.I.U.I.U.U.U.U.U.U.I.U.U.U.U.U.U.U.U.U.U.",
"U.U.U.U.U.U.U.U.U.U.U.U.U.U.U.U.U.U.U.U.U.U.U.I.U.C d j j a D U.H.v d j h d 2.U.P.U.U.U.U.U.U.U.U.U.U.U.U.U.U.U.U.U.U.U.U.U.U.U.",
"U.U.U.U.U.U.U.U.U.U.U.U.U.U.U.U.U.U.U.U.U.U.U.U.] s j j s m z.U.U.<.k d j h g j.U.U.U.U.U.U.U.U.U.U.U.U.U.U.U.U.U.U.U.U.U.U.U.U.",
"U.U.U.U.U.U.U.U.U.U.U.U.U.U.U.U.U.U.U.U.U.I.U.<.d j j s Z L.U.U.U.U.j.x d j d x Z.U.U.U.U.U.U.U.U.U.U.U.U.U.U.U.U.U.U.U.U.U.U.U.",
"U.U.U.U.U.U.U.U.U.U.U.U.U.U.U.U.U.U.U.U.I.U.t.f f f d ' U.I.U.U.U.I.U.A.N s j d M I.U.U.U.U.U.U.U.U.U.U.U.U.U.U.U.U.U.U.U.U.U.U.",
"U.U.U.U.U.U.U.U.U.U.U.U.U.U.U.U.U.U.U.I.U.M.z f f k 3.U.U.U.U.U.U.U.U.U.I.S s j d Z U.I.U.U.U.U.U.U.U.U.U.U.U.U.U.U.U.U.U.U.U.U.",
"U.U.U.U.U.U.U.U.U.U.U.U.U.U.U.U.U.U.U.U.L.m f d c l.U.I.U.U.U.U.U.U.U.U.I.U.>.d f d :.U.I.U.U.U.U.U.U.U.U.U.U.U.U.U.U.U.U.U.U.U.",
"U.U.U.U.U.U.U.U.U.U.U.U.U.U.U.U.U.U.I.U.C d d B S.U.U.U.U.U.U.U.U.U.U.U.U.U.U.t.k f f 2.U.U.U.U.U.U.U.U.U.U.U.U.U.U.U.U.U.U.U.U.",
"U.U.U.U.U.U.U.U.U.U.U.U.U.U.U.U.U.I.U.' s d D I.U.I.U.U.U.U.U.U.U.U.U.U.U.U.I.U.z.b s k j.U.U.U.U.U.U.U.U.U.U.U.U.U.U.U.U.U.U.U.",
"U.U.U.U.U.U.U.U.U.U.U.U.U.U.U.U.I.U.1.s f ,.U.I.U.U.U.U.U.U.U.U.U.U.U.U.U.U.U.I.U.L.V a v A.U.U.U.U.U.U.U.U.U.U.U.U.U.U.U.U.U.U.",
"U.U.U.U.U.U.U.U.U.U.U.U.U.U.U.I.U.k.d z t.U.I.U.U.U.U.U.U.U.U.U.U.U.U.U.U.U.U.U.U.U.U.' a N I.U.U.U.U.U.U.U.U.U.U.U.U.U.U.U.U.U.",
"U.U.U.U.U.U.U.U.U.U.U.U.U.U.U.U.Z.k c A.U.I.U.U.U.U.U.U.U.U.U.U.U.U.U.U.U.U.U.U.U.U.I.U.2.s Z U.I.U.U.U.U.U.U.U.U.U.U.U.U.U.U.U.",
"U.U.U.U.U.U.U.U.U.U.U.U.U.U.U.L.x B I.U.U.U.U.U.U.U.U.U.U.U.U.U.U.U.U.U.U.U.U.U.U.U.U.I.U.l.k ] U.I.U.U.U.U.U.U.U.U.U.U.U.U.U.U.",
"U.U.U.U.U.U.U.U.U.U.U.U.U.U.U.B ] U.I.U.U.U.U.U.U.U.U.U.U.U.U.U.U.U.U.U.U.U.U.U.U.U.U.U.I.U.A.n ,.U.U.U.U.U.U.U.U.U.U.U.U.U.U.U.",
"U.U.U.U.U.U.U.U.U.U.U.U.U.U.' ,.U.I.U.U.U.U.U.U.U.U.U.U.U.U.U.U.U.U.U.U.U.U.U.U.U.U.U.U.U.I.U.L.S t.U.U.U.U.U.U.U.U.U.U.U.U.U.U.",
"U.U.U.U.U.U.U.U.U.U.U.U.U.t.t.U.I.U.U.U.U.U.U.U.U.U.U.U.U.U.U.U.U.U.U.U.U.U.U.U.U.U.U.U.U.U.U.U.I.1.Z.U.U.U.U.U.U.U.U.U.U.U.U.U.",
"U.U.U.U.U.U.U.U.U.U.U.U.I.S.U.U.U.U.U.U.U.U.U.U.U.U.U.U.U.U.U.U.U.U.U.U.U.U.U.U.U.U.U.U.U.U.U.U.U.I.S.U.U.U.U.U.U.U.U.U.U.U.U.U.",
"U.U.U.U.U.U.U.U.U.U.U.U.U.U.U.U.U.U.U.U.U.U.U.U.U.U.U.U.U.U.U.U.U.U.U.U.U.U.U.U.U.U.U.U.U.U.U.U.U.U.U.U.U.U.U.U.U.U.U.U.U.U.U.U.",
"Y.U.U.U.U.U.U.U.U.U.U.U.U.U.U.U.U.U.U.U.U.U.U.U.U.U.U.U.U.U.U.U.U.U.U.U.U.U.U.U.U.U.U.U.U.U.U.U.U.U.U.U.U.U.U.U.U.U.U.U.U.U.U.Y.",
"Y.U.U.U.U.U.U.U.U.U.U.U.U.U.U.U.U.U.U.U.U.U.U.U.U.U.U.U.U.U.U.U.U.U.U.U.U.U.U.U.U.U.U.U.U.U.U.U.U.U.U.U.U.U.U.U.U.U.U.U.U.U.U.Y.",
"Y.U.U.U.U.U.U.U.U.U.U.U.U.U.U.U.U.U.U.U.U.U.U.U.U.U.U.U.U.U.U.U.U.U.U.U.U.U.U.U.U.U.U.U.U.U.U.U.U.U.U.U.U.U.U.U.U.U.U.U.U.U.U.Y.",
"Y.Y.U.U.U.U.U.U.U.U.U.U.U.U.U.U.U.U.U.U.U.U.U.U.U.U.U.U.U.U.U.U.U.U.U.U.U.U.U.U.U.U.U.U.U.U.U.U.U.U.U.U.U.U.U.U.U.U.U.U.U.U.Y.Y.",
"Y.Y.U.U.U.U.U.U.U.U.U.U.U.U.U.U.U.U.U.U.U.U.U.U.U.U.U.U.U.U.U.U.U.U.U.U.U.U.U.U.U.U.U.U.U.U.U.U.U.U.U.U.U.U.U.U.U.U.U.U.U.U.Y.Y.",
"Y.Y.Y.U.U.U.U.U.U.U.U.U.U.U.U.U.U.U.U.U.U.U.U.U.U.U.U.U.U.U.U.U.U.U.U.U.U.U.U.U.U.U.U.U.U.U.U.U.U.U.U.U.U.U.U.U.U.U.U.U.U.Y.Y.Y.",
"Y.Y.Y.Y.U.U.U.U.U.U.U.U.U.U.U.U.U.U.U.U.U.U.U.U.U.U.U.U.U.U.U.U.U.U.U.U.U.U.U.U.U.U.U.U.U.U.U.U.U.U.U.U.U.U.U.U.U.U.U.U.Y.Y.Y.Y.",
"Y.Y.Y.Y.Y.Y.U.U.U.U.U.U.U.U.U.U.U.U.U.U.U.U.U.U.U.U.U.U.U.U.U.U.U.U.U.U.U.U.U.U.U.U.U.U.U.U.U.U.U.U.U.U.U.U.U.U.U.U.Y.Y.Y.Y.Y.Y."
};
